Coordinates
version=1
nRows=17
nColumns=24
inDegrees=yes

Units are S.I. units (second, meters, Newtons, ...)
Angles are in degrees.

endheader
time	pelvis_tilt	pelvis_list	pelvis_rotation	pelvis_tx	pelvis_ty	pelvis_tz	hip_flexion_r	hip_adduction_r	hip_rotation_r	knee_angle_r	ankle_angle_r	subtalar_angle_r	mtp_angle_r	hip_flexion_l	hip_adduction_l	hip_rotation_l	knee_angle_l	ankle_angle_l	subtalar_angle_l	mtp_angle_l	lumbar_extension	lumbar_bending	lumbar_rotation
      0.47100000	     -3.52463120	      0.11094603	      4.62133770	     -0.73531793	      0.89536508	      0.32063156	     31.56656828	      0.84398281	     -6.95960332	    -18.96105608	      2.05079830	      1.06734749	      3.87799225	    -14.09220479	      0.93970130	      0.48821254	     -6.44404825	     13.59328836	      1.35885736	      9.23137783	     -5.21941658	     -2.10388840	     -9.22308204
      0.47516667	     -3.56990074	      0.10775695	      4.71566241	     -0.72946642	      0.89408995	      0.32080957	     31.48298515	      0.94645516	     -6.65558216	    -18.60435005	      2.02123535	      0.75330035	      3.81922877	    -14.13861670	      0.84858556	      0.54915672	     -7.08423086	     13.80637790	      1.55166037	      9.29232480	     -5.13960466	     -2.08846927	     -9.25801122
      0.47933333	     -3.62146465	      0.08971546	      4.80148762	     -0.72360336	      0.89282549	      0.32102155	     31.41508862	      1.06792711	     -6.35453534	    -18.36276164	      1.96100771	      0.39418357	      3.75801314	    -14.12628102	      0.73820558	      0.53823122	     -7.83535164	     14.03881890	      1.83376518	      9.39625180	     -5.04958724	     -2.04596585	     -9.25842470
      0.48350000	     -3.67829610	      0.06225668	      4.88105118	     -0.71772083	      0.89158398	      0.32125679	     31.36191208	      1.20125175	     -6.06473063	    -18.23309682	      1.86623131	      0.00569864	      3.70640454	    -14.08950024	      0.61862894	      0.53452124	     -8.62670491	     14.24553659	      2.09260590	      9.52752023	     -4.95139034	     -1.99137422	     -9.23414554
      0.48766667	     -3.74088618	      0.02437556	      4.95153223	     -0.71181452	      0.89037090	      0.32152508	     31.32493194	      1.34997964	     -5.78525288	    -18.21314165	      1.72762896	     -0.43281395	      3.66316566	    -14.01424880	      0.48843902	      0.50326591	     -9.48115174	     14.42808177	      2.35677386	      9.69560356	     -4.83691046	     -1.92314708	     -9.19055125
      0.49183333	     -3.81047687	     -0.02578452	      5.01383541	     -0.70589431	      0.88917778	      0.32183198	     31.30878456	      1.51501569	     -5.52231000	    -18.30151658	      1.55223331	     -0.90957707	      3.62932275	    -13.89284072	      0.34383265	      0.44880573	    -10.41849684	     14.58590631	      2.63056231	      9.91081347	     -4.71302135	     -1.84199291	     -9.13146886
      0.49600000	     -3.83891890	     -0.10670333	      5.05644199	     -0.69992439	      0.88807494	      0.32218540	     31.25184232	      1.72516423	     -5.26650995	    -18.47465055	      1.38238100	     -1.40708040	      3.59307290	    -13.78422053	      0.15653958	      0.29484161	    -11.42304805	     14.77700269	      3.04995811	     10.42677988	     -4.64403788	     -1.71306751	     -9.04894524
      0.50016667	     -3.95796994	     -0.14694958	      5.10857738	     -0.69399542	      0.88689323	      0.32251206	     31.33317965	      1.87209168	     -5.05071931	    -18.80231194	      1.17583881	     -1.87734242	      3.58627835	    -13.57581909	      0.04609922	      0.39352299	    -12.42629911	     14.82604039	      3.04238354	     10.59841362	     -4.46042656	     -1.63906405	     -8.95394940
      0.50433333	     -4.05569782	     -0.20909108	      5.14013598	     -0.68802820	      0.88578224	      0.32290992	     31.39283729	      2.05979102	     -4.82064598	    -19.19248382	      0.95453175	     -2.43056145	      3.58689070	    -13.34188436	     -0.09761063	      0.36609176	    -13.52614621	     14.85848902	      3.17210898	     10.80772136	     -4.28583907	     -1.54707426	     -8.83531496
      0.50850000	     -4.07708729	     -0.33490551	      5.14496389	     -0.68197205	      0.88481996	      0.32339960	     31.35520409	      2.33731048	     -4.59798964	    -19.60049450	      0.71647055	     -3.03873704	      3.62930977	    -13.13329500	     -0.34611481	      0.07181238	    -14.74500145	     14.89845000	      3.68929761	     11.59873469	     -4.18724331	     -1.36632300	     -8.68063687
      0.51266667	     -4.19944749	     -0.38935451	      5.15071894	     -0.67599347	      0.88376189	      0.32383642	     31.48706796	      2.51176826	     -4.42519165	    -20.18609972	      0.53064960	     -3.45724692	      3.97572510	    -12.80713443	     -0.47272878	      0.03202333	    -15.96235727	     14.73664578	      3.67505056	     16.13679658	     -3.98398013	     -1.28957241	     -8.57011162
      0.51683333	     -4.29975977	     -0.46215735	      5.15110650	     -0.66997967	      0.88280033	      0.32429120	     31.59494083	      2.71211864	     -4.24970825	    -20.81847374	      0.39819120	     -3.95931960	      3.97476269	    -12.48990233	     -0.60721843	      0.07230723	    -17.21712566	     14.58940254	      3.59258717	     16.17793259	     -3.80140263	     -1.17200641	     -8.39426248
      0.52100000	     -4.40218540	     -0.54108743	      5.12440808	     -0.66396078	      0.88187271	      0.32480433	     31.72290258	      2.92879366	     -4.07073162	    -21.51775181	      0.29039442	     -4.42978156	      3.98069702	    -12.11906600	     -0.75399221	      0.00761695	    -18.57389231	     14.38779125	      3.61649955	     16.26339751	     -3.61119198	     -1.05370926	     -8.20426430
      0.52516667	     -4.48407368	     -0.62563475	      5.08206105	     -0.65793494	      0.88102953	      0.32535384	     31.83658895	      3.15387615	     -3.91601608	    -22.25809247	      0.18256149	     -4.86108797	      3.99654688	    -11.72460582	     -0.91421407	     -0.12476443	    -20.01271697	     14.14145479	      3.70924595	     16.44746100	     -3.44948666	     -0.93953957	     -7.98106005
      0.52933333	     -4.56683396	     -0.72844941	      5.03568809	     -0.65186802	      0.88025087	      0.32589286	     31.95582199	      3.39540287	     -3.76877753	    -23.04916815	      0.27044974	     -5.23267471	      4.01393155	    -11.31053032	     -1.07866432	     -0.17861645	    -21.47581625	     13.81568584	      3.64200203	     16.60027864	     -3.27019889	     -0.76292466	     -7.79094104
      0.53350000	     -4.64148196	     -0.82032296	      4.97063317	     -0.64582123	      0.87954115	      0.32646187	     32.07639272	      3.62777685	     -3.63323496	    -23.87824881	      0.36563826	     -5.55834670	      4.03197480	    -10.85436975	     -1.23420008	     -0.28796884	    -23.02698326	     13.40248988	      3.57957737	     16.77985756	     -3.10602326	     -0.61912947	     -7.57854928
      0.53766667	     -4.67925751	     -0.96795682	      4.92258468	     -0.63976764	      0.87897466	      0.32703845	     32.12595048	      3.90893251	     -3.54883428	    -24.64341888	      0.37612236	     -5.93501033	      4.29376466	    -10.36529905	     -1.48148366	     -0.48734915	    -24.68434026	     12.91143347	      3.59755497	     21.29461026	     -2.98360570	     -0.40971462	     -7.28706732
